<?xml version="1.0" standalone="no"?><!DOCTYPE svg PUBLIC "-//W3C//DTD SVG 1.1//EN" "http://www.w3.org/Graphics/SVG/1.1/DTD/svg11.dtd"><svg t="1537152754495" class="icon" style="" viewBox="0 0 1024 1024" version="1.1" xmlns="http://www.w3.org/2000/svg" p-id="9612" xmlns:xlink="http://www.w3.org/1999/xlink" width="64" height="64"><defs><style type="text/css"></style></defs><path d="M168.33783968 453.63897807c0 36.20312039 27.48182891 66.36949231 64.54505907 75.07897236l0 255.62213869L189.85309135 784.34008912c-11.85395274 0-21.51525098 8.70878552-21.51525099 19.46154781 0 10.7513725 9.66129823 19.44904252 21.51525099 19.4490425l645.4519785 0c11.9338504 0 21.51525098-8.70878552 21.51525099-19.4490425s-9.58140126-19.45043161-21.51594622-19.45043162L792.27526176 784.35120531 792.27526176 528.71864499c37.06323017-8.7101753 64.54505907-38.8765472 64.54505907-75.07897238L856.82032083 434.18993555 168.33783968 434.18993555 168.33783968 453.63897807zM598.63939065 531.44834728c47.57421653 0 86.06031007-34.83653185 86.06031007-77.8093699 0 36.20312039 27.48182891 66.36949231 64.54505908 75.07897238l0 255.62213868L426.51877053 784.34008912l0-252.89174115c47.57421653 0 86.06031007-34.83653185 86.06031007-77.8093699C512.5790806 496.61181544 551.14576564 531.44834728 598.63939065 531.44834728zM405.00351888 528.71864499l0 255.62213868L275.9134014 784.34078367 275.9134014 528.71864499c37.06323017-8.7101753 64.54505907-38.8765472 64.54505908-75.07897238C340.45915503 489.84209779 367.9402887 520.00847036 405.00351888 528.71864499zM770.76001078 259.10895339L254.39884497 259.10895339 168.33783968 414.72838774l688.48248116 1e-8L770.76001078 259.10895339zM350.12045326 302.34579906l-43.03050265 77.81006446c-1.92725711 3.41959649-5.71507558 5.3934027-9.66129823 5.39340271-1.59516327 0-3.2361804-0.29805074-4.78548981-1.02129351-5.28988358-2.38718681-7.48184354-8.25024561-4.78479526-13.03573542l43.02980742-77.81006445c2.68523754-4.78479525 9.11104993-6.72455836 14.41274492-4.3721092C350.62484702 291.70836665 352.72509927 297.56030925 350.12045326 302.34579906zM436.18006876 302.34579906l-43.02980742 77.81006446c-1.92795234 3.41959649-5.71507558 5.3934027-9.66199278 5.39340271-1.59516327 0-3.23548585-0.29805074-4.78479525-1.02129351-5.28988358-2.38718681-7.48184354-8.25024561-4.7854898-13.03573542l43.03050262-77.81006445c2.68523754-4.78479525 9.15690447-6.72455836 14.41205039-4.3721092C436.68585231 291.70836665 438.78540933 297.56030925 436.18006876 302.34579906zM523.34226385 375.82960816c0 5.3934027-4.796606 9.73077424-10.76318393 9.73077425-5.93253482 0-10.76318393-4.32625536-10.76318393-9.73077425L501.81589667 298.01954371c0-5.3934027 4.83064912-9.73077424 10.76318394-9.73077423 5.96657793 0 10.76318393 4.32625536 10.76318391 9.73077423L523.34226385 375.82960816zM646.87918468 384.34316685c-1.67506025 0.8378774-3.44252342 1.21652033-5.20929206 1.21652033-3.78642869 0-7.48184354-1.82443323-9.40910134-5.04880288l-47.06982277-77.81006445c-2.85684292-4.71601381-0.91777436-10.63673786 4.28040081-13.18441386 5.12939508-2.5817191 11.76155049-0.91777436 14.63020414 3.83297709L651.17000713 371.15875299C653.93583688 375.86365128 652.08847673 381.79618609 646.87918468 384.34316685zM732.52611413 384.52727749c-1.52568727 0.72324275-3.10973501 1.0212935-4.79591143 1.02129351-3.94761242 0-7.73404111-1.97380621-9.58140127-5.39340271L675.11829946 302.34579906c-2.68523754-4.78479525-0.50508899-10.63743242 4.78479525-13.03573541 5.22179735-2.38649226 11.76224504-0.45853991 14.45859879 4.3721092l43.03050265 77.81006445C739.99614761 376.27703189 737.90770609 382.14078591 732.52611413 384.52727749zM351.22164372 670.57910116l0-44.82019753c-6.31048253-3.43071268-10.76248869-9.35213131-10.76248869-16.48798593 0-10.7527623 9.66129823-19.45043161 21.51455642-19.45043161 11.9338504 0 21.51525098 8.7101753 21.51525098 19.45043161 0 7.13585462-4.41726851 13.06908399-10.76318391 16.50049123l0 44.82019752c6.3459154 3.43071268 10.76318393 9.35213131 10.76318392 16.50049122 0 10.7527623-9.58140126 19.44904252-21.51525099 19.44904251-11.8532582 0-21.51455644-8.70878552-21.51455642-19.44904251C340.45915503 679.94373775 344.91116121 674.01120362 351.22164372 670.57910116zM254.39884497 220.19766852c0-10.75206773 9.66129823-19.44973708 21.51525098-19.44973706l473.33135839 0c11.9338504 0 21.51525098 8.69766934 21.51525098 19.44973707s-9.58140126 19.44973708-21.51525098 19.44973706l-473.33135839 0C264.06014321 239.65921633 254.39884497 230.94973626 254.39884497 220.19766852zM545.43138528 635.59319633l-15.20407392-13.75828363 60.85033809-55.01993332 15.20407393 13.75828363L545.43138528 635.59319633zM545.43138528 690.61451874l-15.20407392-13.75828362 121.68886613-110.04195029 15.20407393 13.75828364L545.43138528 690.61451874zM651.92798824 621.8349127l15.2040739 13.75828363-60.85033809 55.02132241-15.20407391-13.75828362L651.92798824 621.8349127z" p-id="9613"></path></svg>