<?xml version="1.0" standalone="no"?><!DOCTYPE svg PUBLIC "-//W3C//DTD SVG 1.1//EN" "http://www.w3.org/Graphics/SVG/1.1/DTD/svg11.dtd"><svg t="1547859543921" class="icon" style="" viewBox="0 0 1024 1024" version="1.1" xmlns="http://www.w3.org/2000/svg" p-id="4374" xmlns:xlink="http://www.w3.org/1999/xlink" width="128" height="128"><defs><style type="text/css"></style></defs><path d="M153.87648 94.35648h729.728c33.01376 0 33.01376-51.2 0-51.2H153.87648c-33.01888 0-33.01888 51.2 0 51.2z" p-id="4375"></path><path d="M260.27008 393.5232c-3.58912 93.05088-173.54752 93.04576-177.14176 0-1.26976-32.90624-52.47488-33.02912-51.2 0 6.13888 159.08864 273.40288 159.08864 279.54176 0 1.27488-33.02912-49.93024-32.90624-51.2 0z" p-id="4376"></path><path d="M491.91424 393.5232c-3.58912 93.06112-173.52704 93.03552-177.11616 0-1.26976-32.90624-52.47488-33.02912-51.2 0 6.144 159.0784 273.39776 159.10912 279.53152 0 1.27488-33.02912-49.9456-32.90624-51.21536 0z" p-id="4377"></path><path d="M720.24064 393.5232c-3.58912 93.06624-173.52192 93.0304-177.11104 0-1.26976-32.90624-52.49024-33.02912-51.21536 0 6.13888 159.0784 273.38752 159.10912 279.5264 0 1.27488-33.02912-49.93024-32.90624-51.2 0z" p-id="4378"></path><path d="M954.67008 393.5232c-3.58912 93.06624-173.52192 93.0304-177.10592 0-1.26976-32.90624-52.47488-33.02912-51.2 0 6.13376 159.0784 273.37728 159.10912 279.50592 0 1.27488-33.02912-49.93024-32.90624-51.2 0z" p-id="4379"></path><path d="M151.6288 45.32224C98.29376 29.568 67.44576 127.0528 56.2688 159.25248 29.98272 234.96704 14.5664 325.46816 31.2832 405.33504c6.7584 32.31232 56.11008 18.60096 49.37216-13.60896-11.16672-53.36064-1.1776-125.19424 13.65504-181.85728 9.71264-37.11488 22.2976-76.48256 44.93824-107.97568 4.53632-6.31296 11.58144-8.8576 5.45792-6.42048 2.6112-1.03936-3.47648 0.17408-6.69184-0.77824 31.744 9.37472 45.20448-40.04352 13.61408-49.37216zM904.2176 93.696c-6.88128 3.05152-7.23968 3.59424-12.8 2.45248 2.88256 0.59392-5.14048-3.072 1.08032 0.6144 0.8704 0.512 2.56 2.2016 6.22592 6.30272 23.82336 26.6752 33.79712 70.50752 43.09504 103.7056 15.68768 56.00256 24.70912 129.01376 13.66016 181.86752-6.73792 32.21504 42.60864 45.92128 49.37216 13.60896 16.83456-80.46592 0.41984-169.54368-24.99072-246.05184-11.97568-36.06528-45.13792-131.6864-101.46816-106.70592-30.13632 13.35808-4.06016 57.46688 25.82528 44.20608z" p-id="4380"></path><path d="M876.49792 789.6576v91.54048c0 13.96736 8.0896 59.6224-14.65344 59.6224H173.30688c-25.96864 0-15.28832-68.51584-15.28832-84.11648v-308.87424c0-33.01376-51.2-33.01376-51.2 0v367.95904c0 34.95936 13.85472 64.67584 50.35008 74.69568 11.69408 3.21024 26.41408 1.536 38.38464 1.536h607.42144c37.00736 0 87.6544 8.33024 112.1792-26.35776 17.79712-25.18016 12.544-60.08832 12.544-89.31328v-86.68672c0-33.01888-51.2-33.01888-51.2-0.00512zM882.11968 489.30304v168.448c0 33.01376 51.2 33.01376 51.2 0v-168.448c0-33.01376-51.2-33.01376-51.2 0z" p-id="4381"></path><path d="M444.34432 965.9392v-183.2192-77.55776c0-2.4576 69.61664-1.16224 75.83744-1.16224 5.0432 0 70.72256-0.56832 70.72256 0.52224V965.9392c0 33.00864 51.2 33.00864 51.2 0v-187.904-73.51296c0-44.60032-40.44288-51.72224-75.0592-51.72224H454.7328c-34.37568 0-61.58848 18.6624-61.58848 55.72608v257.42336c0 32.9984 51.2 32.9984 51.2-0.01024z" p-id="4382"></path></svg>