<?xml version="1.0" standalone="no"?><!DOCTYPE svg PUBLIC "-//W3C//DTD SVG 1.1//EN"
        "http://www.w3.org/Graphics/SVG/1.1/DTD/svg11.dtd">
<svg class="icon" width="25px" height="25.00px" viewBox="0 0 1024 1024" version="1.1"
     xmlns="http://www.w3.org/2000/svg">
    <path fill="#ffffff"
          d="M835.413333 970.666667H597.333333a32.426667 32.426667 0 0 1-32-32v-194.56a54.613333 54.613333 0 0 0-109.226666 0V938.666667a32.426667 32.426667 0 0 1-32 32H188.586667a32 32 0 0 1-32-32v-420.693334H85.333333a32 32 0 0 1-21.76-55.466666l426.666667-400.64a31.573333 31.573333 0 0 1 42.666667 0l426.666666 400.64a32 32 0 0 1-21.76 55.466666h-70.4V938.666667a32 32 0 0 1-32 32z m-204.8-64h170.666667v-420.693334a32.426667 32.426667 0 0 1 32-32h22.613333L512 128l-346.026667 325.973333h22.613334a32.426667 32.426667 0 0 1 32 32v420.693334h172.8v-162.56a118.613333 118.613333 0 0 1 237.226666 0z"/>
</svg>