<?xml version="1.0" standalone="no"?><!DOCTYPE svg PUBLIC "-//W3C//DTD SVG 1.1//EN" "http://www.w3.org/Graphics/SVG/1.1/DTD/svg11.dtd"><svg t="1593575297340" class="icon" viewBox="0 0 1024 1024" version="1.1" xmlns="http://www.w3.org/2000/svg" p-id="3613" xmlns:xlink="http://www.w3.org/1999/xlink" width="200" height="200"><defs><style type="text/css"></style></defs><path d="M938.417481 1023.971573 625.721335 1023.971573 625.721335 625.994659 398.305955 625.994659 398.305955 1023.971573 85.609809 1023.971573C54.19806 1023.971573 28.755964 998.529478 28.755964 967.117728L28.755964 485.451955C28.414841 477.805113 30.91641 470.07299 36.772356 464.245471L489.272107 11.489878C490.068061 10.438082 490.494465 9.187297 491.46098 8.220782 497.089511 2.592251 504.508937-0.07988 511.899937 0.062255 519.319364-0.07988 526.767218 2.563824 532.424175 8.220782 533.390691 9.187297 533.788667 10.438082 534.584621 11.518305L987.112799 464.245471C992.74133 469.874002 995.41346 477.293428 995.271326 484.712855L995.271326 967.117728C995.271326 998.529478 969.800803 1023.971573 938.417481 1023.971573ZM938.417481 483.860047 926.989858 483.860047 511.928364 68.599565 96.86687 483.860047 85.609809 483.860047 85.609809 967.117728 341.45211 967.117728 341.45211 625.994659C341.45211 594.611337 366.894206 569.140815 398.305955 569.140815L625.721335 569.140815C657.104657 569.140815 682.575179 594.611337 682.575179 625.994659L682.575179 967.117728 938.417481 967.117728 938.417481 483.860047Z" p-id="3614" fill="#ffffff"></path></svg>