<svg xmlns="http://www.w3.org/2000/svg" width="18.001" height="18" viewBox="0 0 18.001 18">
  <defs>
    <style>
      .cls-1 {
        fill: #2f2f76;
      }
    </style>
  </defs>
  <path id="保养" class="cls-1" d="M62.521,87.418s-.3.385-.834,0c-.248-.2-1.321-1.073-1.321-1.073A1.728,1.728,0,0,0,59.482,86H52.747a.616.616,0,0,1-.536-.094c-.248-.2-3.516-2.926-4.45-3.707-.2-.24,0-.635,0-.635s.636-1.125,2.344,0c1.023.729,2.642,1.854,2.642,1.854H56.7l1.122-.729s.3-.2,0-.2c-.884-.052-2.106-.146-2.592-.24a1.081,1.081,0,0,1-.924-1.073c0-.781.924-.875.924-.875h5.86a.846.846,0,0,1,.487.2c.2.24,3.715,3.166,3.963,3.364.3.2,0,.489,0,.489Zm-1.708-8.674a1.533,1.533,0,0,1-1.023,1.021,1.339,1.339,0,0,1-1.371-.385L57.1,78.066a3.091,3.091,0,0,1-3.327-.979,3.017,3.017,0,0,1-.338-3.4.27.27,0,0,1,.248-.146.384.384,0,0,1,.3.094l1.311,1.312.735-.729L54.7,72.9a.513.513,0,0,1-.1-.292.379.379,0,0,1,.149-.24,3.106,3.106,0,0,1,3.417.344,3.03,3.03,0,0,1,.973,3.311l1.271,1.364a1.5,1.5,0,0,1,.4,1.354Zm-1.42-1.073L58.17,76.452a.222.222,0,0,1-.05-.292,2.3,2.3,0,0,0-.288-2.385,1.958,1.958,0,0,0-1.47-.677h-.1l.884.875a.286.286,0,0,1,0,.385l-1.659,1.708a.3.3,0,0,1-.387,0l-.884-.833v.146A2.313,2.313,0,0,0,54.9,76.8a2.648,2.648,0,0,0,2.493.2.288.288,0,0,1,.3.052l1.122,1.125c.387.531.636.729.924.489.289-.308.1-.506-.347-1ZM49.38,80.014V70.319a.7.7,0,0,1,.189-.521.643.643,0,0,1,.5-.208h13.29a.734.734,0,0,1,.685.729V81.086l-1.47-1.218v-8.82H50.84v9.747Zm0,0" transform="translate(-47.672 -69.589)"/>
</svg>
