<svg xmlns="http://www.w3.org/2000/svg" width="14.984" height="16.233" viewBox="0 0 14.984 16.233">
  <defs>
    <style>
      .cls-1 {
        fill: #2f2f76;
      }

      .cls-2 {
        fill: none;
        stroke: #2f2f76;
        stroke-width: 1.3px;
      }
    </style>
  </defs>
  <g id="修改" transform="translate(-288 -718)">
    <path id="修改-2" data-name="修改" class="cls-1" d="M65.622,28.189c.014,0,0,.42,0,1.248v3.746H53.139V19.451c-.071,0,1.82-.016,2.5,0h2.5c-.013-.014.033-1.245.024-1.248H53.139a1.257,1.257,0,0,0-1.248,1.248V33.183a1.223,1.223,0,0,0,1.248,1.248H65.622a1.148,1.148,0,0,0,1.248-1.248V28.216s-1.271-.03-1.249-.026Z" transform="translate(236.109 699.797)"/>
    <line id="修改-3" data-name="修改" class="cls-2" y1="7.182" x2="6.682" transform="translate(295.812 718.492)"/>
  </g>
</svg>
