<svg xmlns="http://www.w3.org/2000/svg" width="14.986" height="16.229" viewBox="0 0 14.986 16.229">
  <g id="组_1195" data-name="组 1195" transform="translate(-554 -944.008)">
    <path id="添加" d="M65.622,28.189c.014,0,0,.42,0,1.248v3.746H53.139V19.451c-.071,0,1.82-.016,2.5,0h2.5c-.013-.014.033-1.245.024-1.248H53.139a1.257,1.257,0,0,0-1.248,1.248V33.183a1.223,1.223,0,0,0,1.248,1.248H65.622a1.148,1.148,0,0,0,1.248-1.248V28.216s-1.271-.03-1.249-.026Z" transform="translate(502.115 925.805)" fill="#2f2f76"/>
    <line id="直线_134" data-name="直线 134" y1="7.182" x2="6.682" transform="translate(561.818 944.5)" fill="none" stroke="#2f2f76" stroke-width="1.3"/>
  </g>
</svg>
