<svg xmlns="http://www.w3.org/2000/svg" width="16" height="16" viewBox="0 0 16 16">
  <defs>
    <style>
      .cls-1 {
        fill: #2f2f76;
      }
    </style>
  </defs>
  <g id="分配" transform="translate(-139.636 -139.636)">
    <path id="路径_449" data-name="路径 449" class="cls-1" d="M153.636,155.636h-12a2,2,0,0,1-2-2v-12a2,2,0,0,1,2-2h12a2,2,0,0,1,2,2v12A2,2,0,0,1,153.636,155.636Zm-12-15a1,1,0,0,0-1,1v12a1,1,0,0,0,1,1h12a1,1,0,0,0,1-1v-12a1,1,0,0,0-1-1Z"/>
    <path id="路径_450" data-name="路径 450" class="cls-1" d="M288.152,351.861h-8.413a.562.562,0,0,1,0-1.109h7.011l-.748-.665a.625.625,0,0,1-.093-.776.421.421,0,0,1,.654-.111l1.87,1.663a.617.617,0,0,1,.163.619A.482.482,0,0,1,288.152,351.861Zm-6.544,4.989a.421.421,0,0,1-.28-.111l-1.87-1.663a.617.617,0,0,1-.163-.619.482.482,0,0,1,.443-.379h8.413a.562.562,0,0,1,0,1.109h-7.011l.748.665a.625.625,0,0,1,.093.776A.447.447,0,0,1,281.608,356.851Z" transform="translate(-136.309 -205.334)"/>
  </g>
</svg>
