<svg xmlns="http://www.w3.org/2000/svg" width="16.653" height="16.25" viewBox="0 0 16.653 16.25">
  <defs>
    <style>
      .cls-1 {
        fill: #2f2f76;
      }
    </style>
  </defs>
  <path id="删_除_1_" data-name="删除" class="cls-1" d="M13,26.812a1.016,1.016,0,0,1-1.014,1.015H4.671a1.016,1.016,0,0,1-1.015-1.015V16.04H13V26.812ZM5.686,14.218a.206.206,0,0,1,.208-.208h4.879a.205.205,0,0,1,.208.208v.611H5.686Zm10.356.611H12.191v-.611A1.421,1.421,0,0,0,10.773,12.8H5.894a1.421,1.421,0,0,0-1.418,1.418v.611H.611a.611.611,0,0,0,0,1.223H2.433v10.76A2.238,2.238,0,0,0,4.671,29.05h7.312a2.238,2.238,0,0,0,2.238-2.238V16.04h1.821a.611.611,0,0,0,.611-.611A.6.6,0,0,0,16.042,14.83ZM8.327,25.993a.611.611,0,0,0,.611-.611V18.876a.611.611,0,0,0-1.223,0v6.505a.611.611,0,0,0,.611.611m-2.849,0a.611.611,0,0,0,.611-.611V18.876a.611.611,0,0,0-1.223,0v6.505a.628.628,0,0,0,.611.611m5.7,0a.611.611,0,0,0,.612-.611V18.876a.612.612,0,0,0-1.223,0v6.505a.611.611,0,0,0,.611.611" transform="translate(0 -12.8)"/>
</svg>
