<?xml version="1.0" standalone="no"?><!DOCTYPE svg PUBLIC "-//W3C//DTD SVG 1.1//EN" "http://www.w3.org/Graphics/SVG/1.1/DTD/svg11.dtd"><svg t="1550629709116" class="icon" style="" viewBox="0 0 1024 1024" version="1.1" xmlns="http://www.w3.org/2000/svg" p-id="4938" xmlns:xlink="http://www.w3.org/1999/xlink" width="128" height="128"><defs><style type="text/css"></style></defs><path d="M903.68 273.92L524.8 53.76c-5.12-2.56-7.68-2.56-12.8-2.56s-7.68 0-12.8 2.56L120.32 273.92c-7.68 5.12-12.8 12.8-12.8 20.48v437.76c0 7.68 5.12 15.36 12.8 20.48l378.88 217.6c5.12 2.56 7.68 2.56 12.8 2.56s7.68 0 12.8-2.56l378.88-217.6c7.68-5.12 12.8-12.8 12.8-20.48V294.4c-2.56-10.24-7.68-17.92-12.8-20.48z m-40.96 440.32L512 916.48 161.28 714.24V309.76L512 107.52l350.72 202.24v404.48z" p-id="4939"></path><path d="M391.68 304.64c-5.12 2.56-7.68 12.8-7.68 25.6v376.32c0 7.68 2.56 12.8 5.12 17.92 2.56 5.12 10.24 7.68 20.48 7.68 7.68 0 15.36-2.56 17.92-7.68 5.12-5.12 5.12-10.24 5.12-17.92V537.6h5.12l181.76 184.32c5.12 5.12 12.8 7.68 17.92 7.68s12.8-2.56 17.92-7.68c2.56-2.56 5.12-7.68 5.12-10.24 0-5.12 0-7.68-2.56-12.8s-5.12-10.24-7.68-12.8c-2.56-5.12-7.68-10.24-12.8-12.8L504.32 537.6h17.92c43.52 0 76.8-10.24 99.84-30.72 23.04-20.48 35.84-51.2 35.84-92.16s-12.8-71.68-35.84-89.6c-23.04-17.92-56.32-28.16-99.84-28.16h-99.84c-15.36 2.56-25.6 5.12-30.72 7.68z m43.52 38.4h87.04c28.16 0 48.64 5.12 64 17.92 15.36 12.8 23.04 30.72 23.04 58.88 0 28.16-7.68 46.08-23.04 58.88-15.36 12.8-35.84 17.92-64 17.92H435.2v-153.6z" p-id="4940"></path></svg>