<?xml version="1.0" standalone="no"?><!DOCTYPE svg PUBLIC "-//W3C//DTD SVG 1.1//EN" "http://www.w3.org/Graphics/SVG/1.1/DTD/svg11.dtd"><svg t="1555573626794" class="icon" style="" viewBox="0 0 1024 1024" version="1.1" xmlns="http://www.w3.org/2000/svg" p-id="2152" xmlns:xlink="http://www.w3.org/1999/xlink" width="200" height="200"><defs><style type="text/css"></style></defs><path d="M512 1024C299.922656 1024 128 596.077344 128 384 128 171.922656 299.922656 0 512 0 724.077344 0 896 171.922656 896 384 896 596.077344 724.077344 1024 512 1024ZM512 960C651.99032 960 832 614.202944 832 384 832 207.268896 688.73112 64 512 64 335.26888 64 192 207.268896 192 384 192 614.202944 372.00968 960 512 960ZM512 544C423.634442 544 352 472.365568 352 384 352 295.634432 423.634442 224 512 224 600.365558 224 672 295.634432 672 384 672 472.365568 600.365558 544 512 544ZM512 480C565.019334 480 608 437.019328 608 384 608 330.980672 565.019334 288 512 288 458.980666 288 416 330.980672 416 384 416 437.019328 458.980666 480 512 480Z" p-id="2153"></path></svg>