<svg xmlns="http://www.w3.org/2000/svg" width="21" height="23.147" viewBox="0 0 21 23.147">
  <defs>
    <style>
      .cls-1 {
        fill: #fff;
      }
    </style>
  </defs>
  <path id="基础信息选中" class="cls-1" d="M113.208,83.9h-15a1.521,1.521,0,0,1-1.5-1.542V65.383a1.522,1.522,0,0,1,1.5-1.543h15a1.522,1.522,0,0,1,1.5,1.543V82.358a1.521,1.521,0,0,1-1.5,1.542Zm0-17.746a.761.761,0,0,0-.75-.772h-13.5a.761.761,0,0,0-.75.772V81.586a.761.761,0,0,0,.75.772h13.5a.761.761,0,0,0,.75-.772V66.155Zm-2.25,13.117h-10.5a.772.772,0,0,1,0-1.544h10.5a.772.772,0,0,1,0,1.544Zm0-4.63h-10.5a.772.772,0,0,1,0-1.543h10.5a.772.772,0,0,1,0,1.543Zm-4.5-4.629h-6a.772.772,0,0,1,0-1.543h6a.772.772,0,0,1,0,1.543Zm5.25,16.975h-16.5a1.522,1.522,0,0,1-1.5-1.544V68.469a1.521,1.521,0,0,1,1.5-1.542V85.443h18a1.522,1.522,0,0,1-1.5,1.544Z" transform="translate(-93.708 -63.84)"/>
</svg>
