<svg xmlns="http://www.w3.org/2000/svg" width="21.001" height="21.005" viewBox="0 0 21.001 21.005">
  <defs>
    <style>
      .cls-1 {
        fill: #2f2f76;
      }
    </style>
  </defs>
  <g id="开始维修" transform="translate(-553 -246)">
    <path id="开始维修-2" data-name="开始维修" class="cls-1" d="M2.723,17.22a.663.663,0,0,1-.471-.21A10.336,10.336,0,0,1,.628,14.017,10.172,10.172,0,0,1,0,10.5,10.058,10.058,0,0,1,.838,6.4,11.128,11.128,0,0,1,3.09,3.045,10.258,10.258,0,0,1,10.474,0,.57.57,0,0,1,11,.367a.664.664,0,0,1-.052.63l-3.04,3.78a.568.568,0,0,1-.471.21A.475.475,0,0,1,7.07,4.83a.593.593,0,0,1-.1-.84L9.112,1.26l-.419.053A9.967,9.967,0,0,0,3.928,3.937,9.313,9.313,0,0,0,1.2,10.5a8.465,8.465,0,0,0,.524,3.045A9.766,9.766,0,0,0,3.142,16.17a.593.593,0,0,1-.1.84.326.326,0,0,1-.314.21ZM10.474,21a.57.57,0,0,1-.524-.367A.664.664,0,0,1,10,20l3.037-3.78a.568.568,0,0,1,.471-.21.475.475,0,0,1,.367.158.649.649,0,0,1,.209.42,1.536,1.536,0,0,1-.1.472l-2.147,2.73.419-.053a9.037,9.037,0,0,0,4.818-2.572A9.313,9.313,0,0,0,19.8,10.6a8.465,8.465,0,0,0-.524-3.045A9.766,9.766,0,0,0,17.862,4.93a.593.593,0,0,1,.1-.84.5.5,0,0,1,.367-.105.663.663,0,0,1,.471.21,10.336,10.336,0,0,1,1.623,2.992A10.926,10.926,0,0,1,21,10.657a10.058,10.058,0,0,1-.838,4.1,11.128,11.128,0,0,1-2.252,3.36,10.488,10.488,0,0,1-3.352,2.258,15.087,15.087,0,0,1-4.085.63Z" transform="translate(553 246)"/>
    <path id="开始维修-3" data-name="开始维修" class="cls-1" d="M222.978,232.394a.606.606,0,0,1-.428-.161l-1.55-1.61a.619.619,0,0,1,0-.912l3.688-3.7v-1.288a4.108,4.108,0,0,1,1.336-3.273,6.586,6.586,0,0,1,4.757-1.234.85.85,0,0,1,.534.429.707.707,0,0,1-.16.644l-1.871,1.878.641.644,1.871-1.878a.6.6,0,0,1,.428-.161.32.32,0,0,1,.214.054.651.651,0,0,1,.428.537,8.664,8.664,0,0,1,0,1.771,5.323,5.323,0,0,1-1.229,3,4.076,4.076,0,0,1-3.26,1.341h-1.283l-3.688,3.7A.659.659,0,0,1,222.978,232.394Zm5.773-10.839a3.994,3.994,0,0,0-1.924.859,2.954,2.954,0,0,0-.909,2.307v1.556a.611.611,0,0,1-.16.429l-3.421,3.434.641.644,3.421-3.434a.606.606,0,0,1,.428-.161h1.55a2.931,2.931,0,0,0,2.3-.912,4.024,4.024,0,0,0,.855-1.932l.107-.483L230.41,225.1a.649.649,0,0,1-.855,0L228,223.6a.655.655,0,0,1,0-.859l1.229-1.234Z" transform="translate(336.596 30.223)"/>
  </g>
</svg>
