<svg xmlns="http://www.w3.org/2000/svg" width="15.13" height="14.833" viewBox="0 0 15.13 14.833">
  <defs>
    <style>
      .cls-1, .cls-2 {
        fill: #2f2f76;
      }

      .cls-2 {
        stroke: #2f2f76;
        stroke-width: 0.5px;
      }
    </style>
  </defs>
  <g id="新增" transform="translate(-64.012 -63.868)">
    <path id="路径_451" data-name="路径 451" class="cls-1" d="M77.71,65.011h-13.7V63.869h13.7Zm-1.142,0H77.71v4.564H76.569ZM65.154,77.561l-1.142,0V65.011h1.141Z" transform="translate(0 0)"/>
    <path id="路径_452" data-name="路径 452" class="cls-1" d="M64.212,266.239h5.7v1.14h-5.7Zm2.28-9.127h6.849v-1.14H66.492Zm0,2.278H72.2v-1.14H66.492Zm0,2.288h3.424v-1.139H66.492Zm0,0" transform="translate(-0.196 -188.678)"/>
    <path id="路径_459" data-name="路径 459" class="cls-2" d="M534.481,470.356l-1.549-1.559a2.881,2.881,0,1,0-.337.337l1.548,1.558a.238.238,0,0,0,.338-.336Zm-3.746-1.018a2.4,2.4,0,1,1,2.4-2.4A2.4,2.4,0,0,1,530.735,469.338Z" transform="translate(-455.658 -392.481)"/>
  </g>
</svg>
