<svg id="查看出库单" xmlns="http://www.w3.org/2000/svg" width="18" height="20.001" viewBox="0 0 18 20.001">
  <defs>
    <style>
      .cls-1 {
        fill: #2e2e74;
      }
    </style>
  </defs>
  <path id="路径_67" data-name="路径 67" class="cls-1" d="M143.223,141.718H128.179a1.437,1.437,0,0,1-1.479-1.388V124.388A1.438,1.438,0,0,1,128.179,123h2.627l1.948,2.719v.045h6v-.025L140.486,123h2.735a1.436,1.436,0,0,1,1.479,1.388v15.943a1.433,1.433,0,0,1-1.477,1.387ZM128.2,140.287h15V124.431h-1.868l-1.1,1.746a1.319,1.319,0,0,1-1.312,1.02h-6.33a1.323,1.323,0,0,1-1.308-.993l-1.268-1.773H128.2ZM143.223,140.287Z" transform="translate(-126.7 -121.718)"/>
  <path id="路径_68" data-name="路径 68" class="cls-1" d="M379.988,69.757H375.97a.972.972,0,0,1-.97-.97V67.17a.972.972,0,0,1,.97-.97h4.017a.972.972,0,0,1,.97.97v1.616a.972.972,0,0,1-.969.971Zm-3.543-1.444h3.069v-.668h-3.069Zm3.674,7.644L378.762,74.6a.714.714,0,0,0-.634-.386h-.034a.722.722,0,0,0-.652.379l-1.363,1.363a.723.723,0,1,0,1.022,1.022l.3-.3V80.07a.716.716,0,0,0,.715.715h.016a.716.716,0,0,0,.715-.715V76.722l.255.255a.721.721,0,1,0,1.018-1.02Z" transform="translate(-369.068 -66.2)"/>
</svg>
