<?xml version="1.0" standalone="no"?><!DOCTYPE svg PUBLIC "-//W3C//DTD SVG 1.1//EN" "http://www.w3.org/Graphics/SVG/1.1/DTD/svg11.dtd"><svg t="1555552126495" class="icon" style="" viewBox="0 0 1024 1024" version="1.1" xmlns="http://www.w3.org/2000/svg" p-id="729" xmlns:xlink="http://www.w3.org/1999/xlink" width="200" height="200"><defs><style type="text/css"></style></defs><path d="M420.076308 874.771692C434.372923 916.342154 470.488615 945.230769 512 945.230769c41.668923 0 77.705846-28.868923 91.963077-70.459077h-183.886769zM689.230769 835.446154C689.053538 939.126154 610.875077 1024 512 1024c-98.599385 0-177.053538-84.854154-177.230769-188.553846l-0.059077-39.443692h354.579692L689.230769 835.446154z m183.808-376.576v119.689846a724.027077 724.027077 0 0 0 0.669539 24.950154c0.846769 18.944 2.363077 37.868308 4.726154 55.276308 2.816 21.070769 6.656 38.203077 11.126153 49.289846 0.393846 1.024 0.807385 1.929846 1.181539 2.756923 41.491692 5.198769 74.180923 39.187692 74.180923 81.723077 0 46.139077-38.656 82.392615-85.326769 82.392615H144.403692C97.792 874.948923 59.076923 838.793846 59.076923 792.536615c0-42.811077 33.083077-76.681846 74.397539-81.723077 0.393846-0.886154 0.787692-1.870769 1.220923-2.953846 4.391385-11.244308 8.152615-28.475077 10.948923-49.565538a652.996923 652.996923 0 0 0 4.647384-55.768616 743.778462 743.778462 0 0 0 0.669539-25.166769V458.830769c0-151.827692 96.177231-289.555692 230.419692-346.230154C388.135385 48.915692 444.593231 0 512 0c67.209846 0 123.470769 48.620308 130.520615 111.970462 137.314462 55.374769 230.518154 191.901538 230.518154 346.899692zM564.499692 125.44C564.499692 100.332308 541.499077 78.769231 512 78.769231s-52.519385 21.543385-52.519385 46.670769c0 2.500923 0.196923 4.923077 0.630154 7.325538l6.025846 33.732924-32.571077 10.633846c-116.617846 38.065231-203.815385 154.230154-203.815384 281.718154v118.508307l-0.098462 8.132923c-0.118154 6.203077-0.334769 13.075692-0.669538 20.48a729.344 729.344 0 0 1-5.257846 62.621539c-9.905231 75.224615-26.860308 118.606769-78.139077 120.300307-5.395692 0-7.739077 2.166154-7.739077 3.643077 0 1.496615 2.304 3.643077 6.557538 3.643077h735.192616c4.253538 0 6.557538-2.166154 6.557538-3.643077 0-1.496615-2.284308-3.643077-6.557538-3.643077-51.337846 0-69.080615-43.992615-79.241846-119.611076a711.187692 711.187692 0 0 1-5.316924-62.247385 801.260308 801.260308 0 0 1-0.787692-28.475077v-119.689846c0-130.914462-83.672615-244.736-203.224615-281.678769l-33.161846-10.24 6.025846-34.225231a41.747692 41.747692 0 0 0 0.610461-7.286154z" p-id="730"></path></svg>