<svg xmlns="http://www.w3.org/2000/svg" width="14.992" height="16.236" viewBox="0 0 14.992 16.236">
  <defs>
    <style>
      .cls-1 {
        fill: #2f2f76;
      }
    </style>
  </defs>
  <g id="添加" transform="translate(-288 -614)">
    <path id="添加-2" data-name="添加" class="cls-1" d="M65.622,28.189c.014,0,0,.42,0,1.248v3.746H53.139V19.451c-.071,0,1.82-.016,2.5,0h2.5c-.013-.014.033-1.245.024-1.248H53.139a1.257,1.257,0,0,0-1.248,1.248V33.183a1.223,1.223,0,0,0,1.248,1.248H65.622a1.148,1.148,0,0,0,1.248-1.248V28.216s-1.271-.03-1.249-.026Zm1.249-6.242H63.126V18.2H61.877v3.752H58.132a8.04,8.04,0,0,0,0,1.248h3.745v3.752c.025.017.457-.014,1.247,0V23.2h3.745c.031-.947,0-1.06,0-1.252Z" transform="translate(236.109 595.8)"/>
  </g>
</svg>
