<svg xmlns="http://www.w3.org/2000/svg" width="15" height="16.236" viewBox="0 0 15 16.236">
  <defs>
    <style>
      .cls-1 {
        fill: #2f2f76;
      }
    </style>
  </defs>
  <path id="添加" class="cls-1" d="M65.622,28.189c.014,0,0,.42,0,1.248v3.746H53.139V19.451c-.071,0,1.82-.016,2.5,0h2.5c-.013-.014.033-1.245.024-1.248H53.139a1.257,1.257,0,0,0-1.248,1.248V33.183a1.223,1.223,0,0,0,1.248,1.248H65.622a1.148,1.148,0,0,0,1.248-1.248V28.216s-1.271-.03-1.249-.026Zm1.249-6.242H63.126V18.2H61.877v3.752H58.132a8.039,8.039,0,0,0,0,1.248h3.745v3.752c.025.017.457-.014,1.247,0v-.033c0-.015,0-.017,0-.017V23.2h3.745C66.9,22.253,66.866,22.14,66.871,21.948Z" transform="translate(-51.885 -18.195)"/>
</svg>
