<svg id="确定_1_" data-name="确定 (1)" xmlns="http://www.w3.org/2000/svg" width="20" height="20" viewBox="0 0 20 20">
  <defs>
    <style>
      .cls-1 {
        fill: #cfcfcf;
      }
    </style>
  </defs>
  <path id="路径_442" data-name="路径 442" class="cls-1" d="M10,18.75A8.75,8.75,0,1,0,1.25,10,8.75,8.75,0,0,0,10,18.75ZM10,20A10,10,0,1,1,20,10,10,10,0,0,1,10,20Z"/>
  <path id="路径_443" data-name="路径 443" class="cls-1" d="M259.105,325.093l5.787-5.828a.625.625,0,1,1,.886.88l-6.229,6.272a.625.625,0,0,1-.908-.02l-2.5-2.5a.626.626,0,0,1,.885-.885Z" transform="translate(-250.96 -312.83)"/>
</svg>
