<svg xmlns="http://www.w3.org/2000/svg" width="16" height="16.248" viewBox="0 0 16 16.248">
  <defs>
    <style>
      .cls-1 {
        fill: #2f2f76;
      }
    </style>
  </defs>
  <path id="编辑_1_" data-name="编辑 (1)" class="cls-1" d="M125.983,152.4a.686.686,0,0,1,0-1.357h14.833a.686.686,0,0,1,0,1.357ZM138.2,136.467l1.494,1.53a1.1,1.1,0,0,1,0,1.53l-9.472,9.67a1.047,1.047,0,0,1-.752.315H127.5a.536.536,0,0,1-.53-.543V146.9a1.1,1.1,0,0,1,.307-.771l9.429-9.659A1.042,1.042,0,0,1,138.2,136.467Zm-9.906,10.539v1.15h1.123l9.165-9.388-1.123-1.161Z" transform="translate(-125.4 -136.151)"/>
</svg>
