<?xml version="1.0" standalone="no"?><!DOCTYPE svg PUBLIC "-//W3C//DTD SVG 1.1//EN"
        "http://www.w3.org/Graphics/SVG/1.1/DTD/svg11.dtd">
<svg class="icon" width="25px" height="25.00px" viewBox="0 0 1024 1024" version="1.1"
     xmlns="http://www.w3.org/2000/svg">
    <path fill="#ffffff"
          d="M868.266667 533.333333V512v-21.333333l85.333333-68.266667a49.493333 49.493333 0 0 0 11.52-63.573333l-91.733333-152.746667a50.773333 50.773333 0 0 0-60.586667-21.76l-103.253333 37.546667a404.48 404.48 0 0 0-39.253334-22.613334l-18.346666-104.533333a50.346667 50.346667 0 0 0-49.493334-42.666667H421.546667a50.346667 50.346667 0 0 0-49.493334 42.666667l-18.346666 104.533333a404.48 404.48 0 0 0-39.253334 22.613334L213.333333 184.32a50.346667 50.346667 0 0 0-60.586666 21.76L60.16 358.826667a49.493333 49.493333 0 0 0 11.52 63.573333l85.333333 68.266667v42.666666l-85.333333 68.266667a49.493333 49.493333 0 0 0-11.52 63.573333l90.453333 152.746667a50.346667 50.346667 0 0 0 62.72 21.76l103.253334-37.546667a404.48 404.48 0 0 0 39.253333 22.613334l18.346667 104.533333a50.346667 50.346667 0 0 0 49.493333 42.666667h180.906667a50.346667 50.346667 0 0 0 49.493333-42.666667l18.346667-104.533333a404.48 404.48 0 0 0 39.253333-22.613334l103.253333 37.546667a50.346667 50.346667 0 0 0 60.586667-21.76l90.453333-152.746667a49.493333 49.493333 0 0 0-11.52-63.573333z m-42.666667 242.346667l-108.373333-39.253333a31.573333 31.573333 0 0 0-29.44 4.266666 317.44 317.44 0 0 1-56.746667 32.426667 33.28 33.28 0 0 0-19.2 23.893333l-19.2 109.653334h-157.866667l-20.906666-109.653334a32.426667 32.426667 0 0 0-19.2-23.893333 317.44 317.44 0 0 1-56.746667-32.426667 31.573333 31.573333 0 0 0-29.44-4.266666l-108.373333 39.253333-78.506667-132.266667 87.893333-70.826666a32 32 0 0 0 11.52-28.586667 241.066667 241.066667 0 0 1 0-64 32 32 0 0 0-11.52-28.586667L121.6 380.586667l78.506667-132.266667 108.373333 39.253333a32.853333 32.853333 0 0 0 29.44-4.266666 302.933333 302.933333 0 0 1 56.746667-32.426667 32.426667 32.426667 0 0 0 19.2-23.893333l19.2-109.653334h157.866666l19.2 109.653334a32.426667 32.426667 0 0 0 19.2 23.893333 302.933333 302.933333 0 0 1 56.746667 32.426667 32.853333 32.853333 0 0 0 29.44 4.266666l108.373333-39.253333 78.506667 132.266667-87.893333 70.826666a33.28 33.28 0 0 0-11.52 28.586667 241.066667 241.066667 0 0 1 0 64 33.28 33.28 0 0 0 11.52 28.586667l87.893333 70.826666z"/>
    <path fill="#ffffff"
          d="M512 354.133333a157.866667 157.866667 0 1 0 157.866667 157.866667A157.866667 157.866667 0 0 0 512 354.133333z m0 256a98.133333 98.133333 0 1 1 98.133333-98.133333 98.133333 98.133333 0 0 1-98.133333 98.133333z"/>
</svg>