<?xml version="1.0" standalone="no"?><!DOCTYPE svg PUBLIC "-//W3C//DTD SVG 1.1//EN"
        "http://www.w3.org/Graphics/SVG/1.1/DTD/svg11.dtd">
<svg t="1593584619806" class="icon" viewBox="0 0 1024 1024" version="1.1" xmlns="http://www.w3.org/2000/svg" p-id="2077"
     xmlns:xlink="http://www.w3.org/1999/xlink" width="25" height="25">
    <defs>
        <style type="text/css"></style>
    </defs>
    <path d="M962.986667 801.706667l-101.12-116.053334v-234.666666a350.293333 350.293333 0 0 0-245.333334-333.226667A123.306667 123.306667 0 0 0 512 52.48a122.026667 122.026667 0 0 0-104.106667 65.28 350.293333 350.293333 0 0 0-245.76 333.226667v234.666666l-101.12 116.053334a32.853333 32.853333 0 0 0-4.693333 34.56 32.426667 32.426667 0 0 0 29.013333 17.066666h285.44a144.213333 144.213333 0 0 0 282.453334 0H938.666667a32.426667 32.426667 0 0 0 29.013333-18.773333 32.853333 32.853333 0 0 0-4.693333-32.853333zM512 905.813333a81.066667 81.066667 0 0 1-69.973333-38.826666h139.946666a81.066667 81.066667 0 0 1-69.973333 38.826666z m-356.266667-114.773333l62.72-72.106667a32.853333 32.853333 0 0 0 7.68-21.333333v-246.613333a285.866667 285.866667 0 0 1 213.333334-275.2 31.573333 31.573333 0 0 0 20.48-17.066667 64.426667 64.426667 0 0 1 53.76-42.666667 64.426667 64.426667 0 0 1 53.76 42.666667 31.573333 31.573333 0 0 0 20.48 17.066667 285.866667 285.866667 0 0 1 213.333333 275.2v246.613333a32.853333 32.853333 0 0 0 7.68 21.333333l62.72 72.106667z"
          fill="#ffffff" p-id="2078"></path>
</svg>