<svg xmlns="http://www.w3.org/2000/svg" width="14" height="15.748" viewBox="0 0 14 15.748">
  <defs>
    <style>
      .cls-1 {
        fill: #2f2f76;
      }
    </style>
  </defs>
  <g id="领取" transform="translate(-556 -40)">
    <path id="领取-2" data-name="领取" class="cls-1" d="M283.871,445.754a.338.338,0,0,1-.024-.476l.17-.187a.34.34,0,0,1,.477-.024l1.872,1.7a.336.336,0,0,0,.476-.024l3.876-4.274a.338.338,0,0,1,.476-.024l.187.17a.34.34,0,0,1,.024.477l-4.5,4.959a.338.338,0,0,1-.476.024Z" transform="translate(275.373 -395.32)"/>
    <path id="领取-3" data-name="领取" class="cls-1" d="M98.337,200.9a.365.365,0,0,0-.337.386v13.25a.365.365,0,0,0,.337.386h13.325a.365.365,0,0,0,.337-.386v-13.25a.365.365,0,0,0-.337-.386Zm12.735,12.575a.365.365,0,0,1-.337.386H99.265a.365.365,0,0,1-.337-.386V202.346a.365.365,0,0,1,.337-.386h11.47a.365.365,0,0,1,.337.386Z" transform="translate(458.001 -159.174)"/>
    <path id="领取-4" data-name="领取" class="cls-1" d="M312.5,102.4a.338.338,0,0,1-.337.337h-.253a.338.338,0,0,1-.337-.337V98.74a.338.338,0,0,1,.337-.337h.253a.338.338,0,0,1,.337.337Zm-6.072,0a.338.338,0,0,1-.337.337h-.253a.338.338,0,0,1-.337-.337V98.74a.338.338,0,0,1,.337-.337h.253a.338.338,0,0,1,.337.337Z" transform="translate(254.001 -58.403)"/>
  </g>
</svg>
