<svg xmlns="http://www.w3.org/2000/svg" width="14" height="15.75" viewBox="0 0 14 15.75">
  <g id="组_1187" data-name="组 1187" transform="translate(-553 -146.82)">
    <g id="组_1187-2" data-name="组 1187" transform="translate(553 146.82)">
      <g id="领取" transform="translate(0 0)">
        <path id="路径_446" data-name="路径 446" d="M283.871,445.754a.338.338,0,0,1-.024-.476l.17-.187a.34.34,0,0,1,.477-.024l1.872,1.7a.336.336,0,0,0,.476-.024l3.876-4.274a.338.338,0,0,1,.476-.024l.187.17a.34.34,0,0,1,.024.477l-4.5,4.959a.338.338,0,0,1-.476.024Z" transform="translate(-280.628 -435.317)" fill="#2f2f76"/>
        <path id="路径_447" data-name="路径 447" d="M98.337,200.9a.365.365,0,0,0-.337.386v13.25a.365.365,0,0,0,.337.386h13.325a.365.365,0,0,0,.337-.386v-13.25a.365.365,0,0,0-.337-.386Zm12.735,12.575a.365.365,0,0,1-.337.386H99.265a.365.365,0,0,1-.337-.386V202.346a.365.365,0,0,1,.337-.386h11.47a.365.365,0,0,1,.337.386Z" transform="translate(-98 -199.171)" fill="#2f2f76"/>
        <path id="路径_448" data-name="路径 448" d="M312.5,102.4a.338.338,0,0,1-.337.337h-.253a.338.338,0,0,1-.337-.337v-3.66a.338.338,0,0,1,.337-.337h.253a.338.338,0,0,1,.337.337Zm-6.072,0a.338.338,0,0,1-.337.337h-.253a.338.338,0,0,1-.337-.337v-3.66a.338.338,0,0,1,.337-.337h.253a.338.338,0,0,1,.337.337Z" transform="translate(-302 -98.4)" fill="#2f2f76"/>
      </g>
    </g>
  </g>
</svg>
