<?xml version="1.0" standalone="no"?><!DOCTYPE svg PUBLIC "-//W3C//DTD SVG 1.1//EN" "http://www.w3.org/Graphics/SVG/1.1/DTD/svg11.dtd"><svg t="1593587221706" class="icon" viewBox="0 0 1024 1024" version="1.1" xmlns="http://www.w3.org/2000/svg" p-id="2498" xmlns:xlink="http://www.w3.org/1999/xlink" width="25" height="25"><defs><style type="text/css"></style></defs><path d="M996.173913 996.173913H27.826087V27.826087h968.347826z" fill="#EBEBEB" p-id="2499"></path><path d="M55.652174 55.652174v912.695652h912.695652V55.652174H55.652174M0 0h1024v1024H0z" fill="#B4B5B7" p-id="2500"></path><path d="M343.485217 439.095652a75.575652 75.575652 0 1 0-75.575652-75.575652A75.52 75.52 0 0 0 343.485217 439.095652z" fill="#B4B5B7" p-id="2501"></path><path d="M683.353043 391.846957l-223.833043 315.547826-116.034783-161.113044-188.827826 270.358261H909.913043l-226.615652-424.793043z" fill="#B4B5B7" p-id="2502"></path><path d="M496.695652 375.54087L618.24 0H507.102609L379.269565 395.074783l189.495652 253.328695L465.641739 1024h109.634783l109.133913-397.467826-187.714783-250.991304z" fill="#FFFFFF" p-id="2503"></path></svg>